<svg width="151" height="125" viewBox="0 0 151 125" fill="none" xmlns="http://www.w3.org/2000/svg">
<circle cx="75.3488" cy="49.3893" r="73.8488" fill="white" stroke="#282D26" stroke-width="3"/>
<path d="M30.9189 61.9765V70.8346C30.9189 71.125 30.8035 71.4035 30.5982 71.6089C30.3928 71.8142 30.1143 71.9296 29.8239 71.9296C29.5334 71.9296 29.2549 71.8142 29.0496 71.6089C28.8442 71.4035 28.7288 71.125 28.7288 70.8346V61.9765C28.7288 61.6861 28.8442 61.4075 29.0496 61.2022C29.2549 60.9968 29.5334 60.8814 29.8239 60.8814C30.1143 60.8814 30.3928 60.9968 30.5982 61.2022C30.8035 61.4075 30.9189 61.6861 30.9189 61.9765ZM37.6214 70.917C37.6172 71.1884 37.5086 71.4477 37.3183 71.6412C37.128 71.8348 36.8705 71.9476 36.5993 71.9565C36.4286 71.9505 36.2614 71.9066 36.1099 71.828C35.9583 71.7494 35.8261 71.638 35.7229 71.502L31.6496 66.8111C31.47 66.6099 31.3668 66.352 31.3581 66.0824C31.3689 65.819 31.4793 65.5695 31.6668 65.3843L35.5273 61.2132C35.6262 61.0998 35.7487 61.0091 35.8861 60.9475C36.0234 60.8859 36.1726 60.8549 36.3231 60.8565C36.5903 60.861 36.8449 60.9711 37.0314 61.1625C37.2178 61.354 37.321 61.6114 37.3184 61.8787C37.3156 62.0159 37.2855 62.1511 37.2299 62.2766C37.1742 62.402 37.0942 62.5152 36.9943 62.6093L33.7591 66.0977L37.3453 70.2516C37.5172 70.4311 37.6157 70.6685 37.6214 70.917Z" fill="#282D26"/>
<path d="M49.4386 66.4045C49.4386 69.5055 46.9226 71.9564 43.7276 71.9564C40.5326 71.9564 38.0472 69.5209 38.0472 66.4045C38.0472 63.2882 40.5403 60.8564 43.7276 60.8564C46.9149 60.8564 49.4386 63.3073 49.4386 66.4045ZM40.3044 66.4045C40.3044 68.4661 41.7312 69.9255 43.7429 69.9255C45.7546 69.9255 47.1834 68.4507 47.1834 66.4045C47.1834 64.3583 45.7393 62.8835 43.7429 62.8835C41.7465 62.8835 40.3044 64.3448 40.3044 66.4045Z" fill="#282D26"/>
<path d="M51.2797 70.8347V62.1703C51.2746 62.0219 51.3001 61.8741 51.3546 61.736C51.4091 61.5979 51.4914 61.4725 51.5965 61.3677C51.7016 61.2628 51.8271 61.1806 51.9653 61.1264C52.1034 61.0721 52.2513 61.0469 52.3997 61.0522H55.3204C57.6083 61.0522 59.1655 62.4464 59.1655 64.5042C59.1655 66.5619 57.5757 67.9772 55.3204 67.9772H53.4698V70.8347C53.4698 71.1251 53.3544 71.4036 53.149 71.609C52.9437 71.8143 52.6652 71.9297 52.3747 71.9297C52.0843 71.9297 51.8058 71.8143 51.6004 71.609C51.3951 71.4036 51.2797 71.1251 51.2797 70.8347ZM55.307 66.0652C56.3138 66.0652 56.9294 65.465 56.9294 64.508C56.9294 63.5817 56.3138 62.9738 55.307 62.9738H53.4736V66.0595L55.307 66.0652Z" fill="#282D26"/>
<path d="M60.9068 70.8347V62.1703C60.9017 62.0219 60.9272 61.8741 60.9817 61.736C61.0362 61.5979 61.1186 61.4725 61.2236 61.3677C61.3287 61.2628 61.4542 61.1806 61.5924 61.1264C61.7306 61.0721 61.8784 61.0469 62.0268 61.0522H64.9456C67.2354 61.0522 68.7926 62.4464 68.7926 64.5042C68.7926 66.5619 67.2009 67.9772 64.9456 67.9772H63.0969V70.8347C63.0969 71.1251 62.9815 71.4036 62.7762 71.609C62.5708 71.8143 62.2923 71.9297 62.0019 71.9297C61.7114 71.9297 61.4329 71.8143 61.2276 71.609C61.0222 71.4036 60.9068 71.1251 60.9068 70.8347ZM64.9341 66.0595C65.9409 66.0595 66.5565 65.4592 66.5565 64.5023C66.5565 63.576 65.9409 62.9681 64.9341 62.9681H63.1007V66.0595H64.9341Z" fill="#282D26"/>
<path d="M70.5339 70.6735V62.1376C70.5313 61.9942 70.5577 61.8517 70.6114 61.7187C70.6652 61.5857 70.7452 61.4649 70.8467 61.3636C70.9482 61.2622 71.0692 61.1824 71.2023 61.1289C71.3354 61.0754 71.4779 61.0493 71.6213 61.0522H76.8625C76.9949 61.0457 77.1271 61.0668 77.2509 61.114C77.3748 61.1613 77.4874 61.2337 77.5819 61.3267C77.6763 61.4197 77.7504 61.5312 77.7996 61.6543C77.8487 61.7773 77.8718 61.9093 77.8674 62.0417C77.8677 62.173 77.8418 62.3031 77.7912 62.4243C77.7406 62.5455 77.6663 62.6554 77.5728 62.7475C77.4792 62.8396 77.3682 62.9122 77.2462 62.9609C77.1243 63.0097 76.9938 63.0336 76.8625 63.0313H72.724V65.206H75.5642C75.6903 65.2003 75.8162 65.2202 75.9344 65.2645C76.0526 65.3088 76.1605 65.3766 76.2518 65.4638C76.343 65.551 76.4156 65.6558 76.4653 65.7718C76.5149 65.8879 76.5405 66.0128 76.5405 66.139C76.5405 66.2652 76.5149 66.3901 76.4653 66.5062C76.4156 66.6222 76.343 66.727 76.2518 66.8142C76.1605 66.9014 76.0526 66.9692 75.9344 67.0135C75.8162 67.0578 75.6903 67.0777 75.5642 67.072H72.724V69.7818H77.0562C77.3187 69.7818 77.5703 69.886 77.7559 70.0716C77.9415 70.2572 78.0458 70.5089 78.0458 70.7713C78.0458 71.0338 77.9415 71.2855 77.7559 71.4711C77.5703 71.6566 77.3187 71.7609 77.0562 71.7609H71.6213C71.4778 71.7635 71.3352 71.7371 71.2021 71.6834C71.069 71.6297 70.9481 71.5497 70.8466 71.4482C70.7451 71.3467 70.6651 71.2258 70.6114 71.0927C70.5577 70.9596 70.5313 70.817 70.5339 70.6735Z" fill="#282D26"/>
<path d="M82.0271 61.9766V70.8347C82.0333 70.9824 82.0095 71.13 81.9572 71.2683C81.9049 71.4067 81.8252 71.533 81.7228 71.6398C81.6205 71.7465 81.4975 71.8315 81.3615 71.8895C81.2254 71.9476 81.079 71.9775 80.9311 71.9775C80.7832 71.9775 80.6368 71.9476 80.5008 71.8895C80.3647 71.8315 80.2418 71.7465 80.1394 71.6398C80.037 71.533 79.9573 71.4067 79.905 71.2683C79.8527 71.13 79.8289 70.9824 79.8351 70.8347V61.9766C79.8289 61.8288 79.8527 61.6813 79.905 61.5429C79.9573 61.4045 80.037 61.2782 80.1394 61.1714C80.2418 61.0647 80.3647 60.9797 80.5008 60.9217C80.6368 60.8637 80.7832 60.8337 80.9311 60.8337C81.079 60.8337 81.2254 60.8637 81.3615 60.9217C81.4975 60.9797 81.6205 61.0647 81.7228 61.1714C81.8252 61.2782 81.9049 61.4045 81.9572 61.5429C82.0095 61.6813 82.0333 61.8288 82.0271 61.9766ZM88.7278 70.9171C88.7239 71.1886 88.6155 71.4482 88.4251 71.6418C88.2347 71.8355 87.977 71.9482 87.7056 71.9565C87.5349 71.9506 87.3678 71.9067 87.2162 71.8281C87.0646 71.7494 86.9324 71.6381 86.8292 71.502L82.7559 66.8112C82.5763 66.61 82.4731 66.352 82.4644 66.0825C82.4752 65.8191 82.5856 65.5696 82.7731 65.3844L86.6336 61.2133C86.7326 61.0998 86.855 61.0092 86.9923 60.9476C87.1297 60.886 87.2789 60.855 87.4294 60.8566C87.6956 60.8626 87.9488 60.9733 88.134 61.1646C88.3192 61.3559 88.4216 61.6125 88.419 61.8787C88.4162 62.016 88.3861 62.1512 88.3304 62.2767C88.2748 62.4021 88.1947 62.5152 88.0949 62.6094L84.8654 66.0978L88.4516 70.2517C88.6243 70.4307 88.723 70.6684 88.7278 70.9171Z" fill="#282D26"/>
<path d="M99.2964 61.9765V69.7818H99.5879C99.7359 69.7778 99.8832 69.804 100.021 69.8588C100.158 69.9136 100.283 69.9958 100.388 70.1003C100.493 70.2049 100.575 70.3298 100.63 70.4672C100.685 70.6046 100.712 70.7518 100.708 70.8998V73.1244C100.708 73.4149 100.593 73.6934 100.387 73.8987C100.182 74.1041 99.9033 74.2195 99.6129 74.2195C99.3224 74.2195 99.0439 74.1041 98.8386 73.8987C98.6332 73.6934 98.5178 73.4149 98.5178 73.1244V71.7609H91.7021C91.5538 71.766 91.4059 71.7405 91.2679 71.686C91.1298 71.6315 91.0044 71.5492 90.8995 71.4441C90.7946 71.339 90.7125 71.2135 90.6582 71.0753C90.604 70.9372 90.5787 70.7893 90.5841 70.6409V61.9765C90.5841 61.8327 90.6124 61.6903 90.6674 61.5575C90.7225 61.4246 90.8031 61.3039 90.9048 61.2022C91.0065 61.1005 91.1272 61.0199 91.2601 60.9648C91.3929 60.9098 91.5353 60.8815 91.6791 60.8815C91.8229 60.8815 91.9653 60.9098 92.0982 60.9648C92.231 61.0199 92.3517 61.1005 92.4534 61.2022C92.5551 61.3039 92.6358 61.4246 92.6908 61.5575C92.7458 61.6903 92.7741 61.8327 92.7741 61.9765V69.7818H97.1064V61.9765C97.1004 61.8306 97.1241 61.685 97.1762 61.5485C97.2283 61.4121 97.3077 61.2877 97.4094 61.1829C97.5112 61.0781 97.6331 60.9952 97.768 60.9391C97.9028 60.8829 98.0477 60.8549 98.1937 60.8566C98.3406 60.8544 98.4864 60.8821 98.6223 60.9378C98.7581 60.9936 98.8813 61.0763 98.9844 61.1809C99.0874 61.2856 99.1682 61.41 99.2218 61.5468C99.2755 61.6835 99.3009 61.8297 99.2964 61.9765Z" fill="#282D26"/>
<path d="M111.651 61.9592V70.8345C111.651 71.125 111.535 71.4035 111.33 71.6088C111.125 71.8142 110.846 71.9296 110.556 71.9296C110.265 71.9296 109.987 71.8142 109.781 71.6088C109.576 71.4035 109.461 71.125 109.461 70.8345V64.8895L104.367 71.477C104.234 71.67 104.042 71.8152 103.82 71.8912C103.599 71.9672 103.358 71.9699 103.135 71.8991C102.911 71.8282 102.716 71.6875 102.579 71.4976C102.441 71.3077 102.368 71.0786 102.371 70.8441V61.9764C102.371 61.686 102.486 61.4075 102.691 61.2021C102.897 60.9968 103.175 60.8814 103.466 60.8814C103.756 60.8814 104.035 60.9968 104.24 61.2021C104.445 61.4075 104.561 61.686 104.561 61.9764V67.9464L109.51 61.5047C109.787 61.148 110.028 60.8565 110.565 60.8565C110.709 60.8557 110.852 60.8838 110.985 60.9391C111.119 60.9945 111.239 61.0759 111.341 61.1787C111.442 61.2815 111.521 61.4035 111.575 61.5376C111.628 61.6716 111.654 61.815 111.651 61.9592Z" fill="#282D26"/>
<path d="M121.978 62.1702V70.8347C121.984 70.9824 121.96 71.13 121.908 71.2683C121.856 71.4067 121.776 71.533 121.673 71.6398C121.571 71.7465 121.448 71.8315 121.312 71.8895C121.176 71.9476 121.03 71.9775 120.882 71.9775C120.734 71.9775 120.587 71.9476 120.451 71.8895C120.315 71.8315 120.192 71.7465 120.09 71.6398C119.988 71.533 119.908 71.4067 119.856 71.2683C119.803 71.13 119.78 70.9824 119.786 70.8347V68.4662H118.196C117.985 68.4662 117.791 68.4509 117.596 68.4355L115.617 71.504C115.525 71.648 115.398 71.7658 115.247 71.8455C115.097 71.9252 114.928 71.9642 114.757 71.9585C114.469 71.9539 114.194 71.835 113.993 71.6279C113.792 71.4208 113.681 71.1424 113.685 70.8538C113.697 70.6024 113.782 70.3599 113.929 70.1558L115.563 67.7049C115.086 67.3767 114.698 66.9348 114.435 66.4192C114.171 65.9036 114.04 65.3304 114.054 64.7515C114.054 62.5442 115.741 61.0522 118.19 61.0522H120.852C121.001 61.046 121.149 61.0707 121.288 61.1246C121.427 61.1785 121.553 61.2605 121.659 61.3655C121.765 61.4704 121.847 61.5961 121.902 61.7346C121.957 61.8731 121.983 62.0214 121.978 62.1702ZM119.782 62.991H118.159C117.057 62.991 116.293 63.7044 116.293 64.7611C116.293 65.8178 117.061 66.5466 118.159 66.5466H119.782V62.991Z" fill="#282D26"/>
<path d="M30.4606 84.8535C30.4606 86.7041 29.0012 88.0005 26.9243 88.0005H23.2806C23.1322 88.0059 22.9844 87.9806 22.8462 87.9264C22.708 87.8721 22.5825 87.79 22.4774 87.6851C22.3724 87.5802 22.29 87.4548 22.2355 87.3167C22.181 87.1787 22.1555 87.0308 22.1606 86.8825V78.406C22.1555 78.2576 22.181 78.1097 22.2355 77.9715C22.29 77.8333 22.3723 77.7078 22.4773 77.6028C22.5824 77.4977 22.7079 77.4154 22.846 77.3609C22.9842 77.3064 23.1321 77.281 23.2806 77.286H25.9654C27.9618 77.286 29.356 78.5038 29.356 80.272C29.3679 80.6317 29.3033 80.9899 29.1664 81.3228C29.0295 81.6557 28.8235 81.9558 28.5621 82.2032C29.7472 82.6251 30.4606 83.5648 30.4606 84.8535ZM24.2778 79.1674V81.6182H25.7871C26.6462 81.6182 27.1813 81.1484 27.1813 80.3851C27.1813 79.6219 26.6462 79.1674 25.7871 79.1674H24.2778ZM28.2859 84.7653C28.2859 83.9234 27.7106 83.4228 26.7517 83.4228H24.2778V86.1173H26.7709C27.7183 86.1135 28.2878 85.6206 28.2878 84.7653H28.2859Z" fill="#282D26"/>
<path d="M43.0083 82.6406C43.0083 85.7396 40.4941 88.1905 37.2972 88.1905C34.1004 88.1905 31.6188 85.755 31.6188 82.6406C31.6188 79.5261 34.1119 77.0906 37.2972 77.0906C40.4826 77.0906 43.0083 79.5415 43.0083 82.6406ZM33.8741 82.6406C33.8741 84.7021 35.3028 86.1616 37.3145 86.1616C39.3262 86.1616 40.753 84.6849 40.753 82.6406C40.753 80.5962 39.309 79.1196 37.3183 79.1196C35.3277 79.1196 33.8664 80.5809 33.8664 82.6406H33.8741Z" fill="#282D26"/>
<path d="M44.2493 82.64C44.2493 79.5237 46.7423 77.0901 49.9603 77.0901C50.7431 77.0798 51.5188 77.24 52.2334 77.5596C52.9481 77.8791 53.5846 78.3504 54.0988 78.9407C54.3104 79.1587 54.4323 79.4482 54.4402 79.7519C54.4347 80.0185 54.3242 80.2721 54.1329 80.4577C53.9415 80.6433 53.6846 80.746 53.418 80.7434C53.255 80.7383 53.0951 80.6978 52.9494 80.6246C52.8036 80.5514 52.6756 80.4473 52.5742 80.3196C52.2574 79.9352 51.8576 79.6275 51.4049 79.4196C50.9523 79.2117 50.4584 79.1089 49.9603 79.1191C47.9486 79.1191 46.5084 80.5957 46.5084 82.6573C46.5084 84.7189 47.9525 86.161 49.9603 86.161C50.4554 86.1677 50.9456 86.0634 51.395 85.8556C51.8443 85.6478 52.2414 85.342 52.557 84.9605C52.6617 84.8324 52.7929 84.7284 52.9415 84.6556C53.0901 84.5828 53.2526 84.5429 53.418 84.5386C53.549 84.5376 53.6789 84.5624 53.8003 84.6116C53.9216 84.6608 54.0321 84.7334 54.1254 84.8253C54.2188 84.9172 54.2931 85.0265 54.3441 85.1471C54.3952 85.2677 54.4219 85.3972 54.4229 85.5282C54.4117 85.8317 54.2904 86.1207 54.0816 86.3413C53.1419 87.492 51.6 88.19 49.945 88.19C46.7328 88.19 44.2493 85.7545 44.2493 82.64Z" fill="#282D26"/>
<path d="M56.5382 87.0704V78.406C56.5331 78.2576 56.5586 78.1097 56.6131 77.9715C56.6676 77.8333 56.7499 77.7078 56.8549 77.6028C56.9599 77.4977 57.0854 77.4154 57.2236 77.3609C57.3618 77.3064 57.5097 77.281 57.6581 77.286H64.1785C64.3266 77.2824 64.4739 77.3088 64.6114 77.3638C64.749 77.4188 64.8739 77.5011 64.9786 77.6059C65.0834 77.7106 65.1657 77.8355 65.2207 77.9731C65.2757 78.1106 65.3022 78.2579 65.2985 78.406V87.0704C65.2985 87.3608 65.1831 87.6394 64.9777 87.8447C64.7724 88.0501 64.4939 88.1654 64.2034 88.1654C63.913 88.1654 63.6345 88.0501 63.4291 87.8447C63.2238 87.6394 63.1084 87.3608 63.1084 87.0704V79.2652H58.7282V87.0704C58.7282 87.3608 58.6129 87.6394 58.4075 87.8447C58.2022 88.0501 57.9236 88.1654 57.6332 88.1654C57.3428 88.1654 57.0643 88.0501 56.8589 87.8447C56.6535 87.6394 56.5382 87.3608 56.5382 87.0704Z" fill="#282D26"/>
<path d="M67.7417 87.0704V78.406C67.7364 78.2577 67.7616 78.1098 67.8159 77.9716C67.8702 77.8334 67.9523 77.7079 68.0572 77.6029C68.162 77.4978 68.2874 77.4154 68.4255 77.3609C68.5636 77.3064 68.7114 77.2809 68.8598 77.286H71.7805C74.0703 77.286 75.6275 78.6822 75.6275 80.738C75.6275 82.7938 74.0358 84.2091 71.7805 84.2091H69.9318V87.0647C69.9318 87.3551 69.8164 87.6336 69.6111 87.839C69.4057 88.0443 69.1272 88.1597 68.8368 88.1597C68.5463 88.1597 68.2678 88.0443 68.0625 87.839C67.8571 87.6336 67.7417 87.3551 67.7417 87.0647V87.0704ZM71.769 82.301C72.7758 82.301 73.3914 81.6988 73.3914 80.7437C73.3914 79.8175 72.7758 79.2095 71.769 79.2095H69.9356V82.2933L71.769 82.301Z" fill="#282D26"/>
<path d="M86.6661 78.1952V87.0706C86.6661 87.2144 86.6378 87.3568 86.5827 87.4896C86.5277 87.6225 86.447 87.7432 86.3454 87.8449C86.2437 87.9466 86.123 88.0272 85.9901 88.0823C85.8572 88.1373 85.7148 88.1656 85.571 88.1656C85.4272 88.1656 85.2848 88.1373 85.152 88.0823C85.0191 88.0272 84.8984 87.9466 84.7967 87.8449C84.6951 87.7432 84.6144 87.6225 84.5594 87.4896C84.5043 87.3568 84.476 87.2144 84.476 87.0706V81.1255L79.3805 87.713C79.2474 87.906 79.0558 88.0512 78.834 88.1272C78.6121 88.2032 78.3718 88.206 78.1482 88.1351C77.9247 88.0643 77.7298 87.9235 77.5923 87.7336C77.4547 87.5437 77.3818 87.3146 77.3842 87.0802V78.2125C77.3842 77.922 77.4995 77.6435 77.7049 77.4382C77.9102 77.2328 78.1888 77.1174 78.4792 77.1174C78.7696 77.1174 79.0481 77.2328 79.2535 77.4382C79.4589 77.6435 79.5742 77.922 79.5742 78.2125V84.1824L84.524 77.7407C84.8001 77.384 85.0437 77.0906 85.5787 77.0906C85.7231 77.09 85.8662 77.1184 85.9995 77.1739C86.1328 77.2295 86.2536 77.3111 86.3549 77.414C86.4562 77.5169 86.5359 77.639 86.5894 77.7732C86.6428 77.9073 86.6689 78.0508 86.6661 78.1952Z" fill="#282D26"/>
<path d="M96.9913 78.4061V87.0705C96.9913 87.2143 96.963 87.3567 96.9079 87.4895C96.8529 87.6224 96.7723 87.7431 96.6706 87.8448C96.5689 87.9465 96.4482 88.0271 96.3153 88.0822C96.1825 88.1372 96.0401 88.1655 95.8963 88.1655C95.7525 88.1655 95.6101 88.1372 95.4772 88.0822C95.3444 88.0271 95.2236 87.9465 95.122 87.8448C95.0203 87.7431 94.9396 87.6224 94.8846 87.4895C94.8295 87.3567 94.8012 87.2143 94.8012 87.0705V84.7021H93.2095C93.0005 84.7021 92.8048 84.6848 92.6092 84.6695L90.632 87.7302C90.5414 87.8748 90.4143 87.993 90.2635 88.0728C90.1126 88.1526 89.9434 88.1912 89.7729 88.1847C89.4843 88.1802 89.2093 88.0613 89.0083 87.8542C88.8073 87.6471 88.6968 87.3687 88.7009 87.0801C88.7129 86.8287 88.7975 86.5863 88.9444 86.382L90.5841 83.9331C90.1068 83.6051 89.7188 83.1633 89.4553 82.6476C89.1918 82.1319 89.061 81.5587 89.0748 80.9797C89.0748 78.7724 90.7624 77.2804 93.2114 77.2804H95.8733C96.022 77.2755 96.1702 77.3014 96.3086 77.3563C96.4469 77.4113 96.5725 77.4941 96.6774 77.5998C96.7823 77.7054 96.8643 77.8315 96.9183 77.9702C96.9723 78.109 96.9972 78.2573 96.9913 78.4061ZM94.8012 79.2173H93.1788C92.0742 79.2173 91.3128 79.9307 91.3128 80.9855C91.3128 82.0402 92.0799 82.7709 93.1788 82.7709H94.8012V79.2173Z" fill="#282D26"/>
<path d="M101.849 87.0705V79.2653H99.3002C99.1703 79.2653 99.0416 79.2397 98.9215 79.1899C98.8015 79.1402 98.6924 79.0673 98.6005 78.9754C98.5086 78.8835 98.4357 78.7744 98.386 78.6544C98.3363 78.5343 98.3107 78.4057 98.3107 78.2757C98.3107 78.1457 98.3363 78.0171 98.386 77.897C98.4357 77.7769 98.5086 77.6679 98.6005 77.576C98.6924 77.4841 98.8015 77.4112 98.9215 77.3615C99.0416 77.3117 99.1703 77.2861 99.3002 77.2861H106.588C106.72 77.2794 106.853 77.3003 106.977 77.3474C107.101 77.3946 107.214 77.4669 107.308 77.5599C107.403 77.6529 107.477 77.7646 107.527 77.8878C107.576 78.011 107.599 78.1431 107.595 78.2757C107.595 78.4072 107.569 78.5374 107.518 78.6587C107.467 78.78 107.393 78.89 107.299 78.9822C107.205 79.0744 107.094 79.1469 106.972 79.1955C106.85 79.2441 106.719 79.2678 106.588 79.2653H104.039V87.0705C104.039 87.3609 103.924 87.6395 103.718 87.8448C103.513 88.0502 103.234 88.1656 102.944 88.1656C102.654 88.1656 102.375 88.0502 102.17 87.8448C101.964 87.6395 101.849 87.3609 101.849 87.0705Z" fill="#282D26"/>
<path d="M118.209 78.1949V87.0703C118.209 87.2141 118.181 87.3564 118.126 87.4893C118.071 87.6222 117.99 87.7429 117.889 87.8446C117.787 87.9462 117.666 88.0269 117.533 88.0819C117.4 88.137 117.258 88.1653 117.114 88.1653C116.97 88.1653 116.828 88.137 116.695 88.0819C116.562 88.0269 116.442 87.9462 116.34 87.8446C116.238 87.7429 116.158 87.6222 116.103 87.4893C116.048 87.3564 116.019 87.2141 116.019 87.0703V81.1252L110.924 87.7127C110.791 87.9057 110.599 88.0509 110.377 88.1269C110.155 88.2029 109.915 88.2056 109.691 88.1348C109.468 88.0639 109.273 87.9232 109.135 87.7333C108.998 87.5434 108.925 87.3143 108.927 87.0798V78.2121C108.921 78.0644 108.945 77.9169 108.997 77.7785C109.05 77.6401 109.129 77.5138 109.232 77.407C109.334 77.3003 109.457 77.2153 109.593 77.1573C109.729 77.0993 109.875 77.0693 110.023 77.0693C110.171 77.0693 110.318 77.0993 110.454 77.1573C110.59 77.2153 110.713 77.3003 110.815 77.407C110.917 77.5138 110.997 77.6401 111.049 77.7785C111.102 77.9169 111.126 78.0644 111.119 78.2121V84.1821L116.067 77.7404C116.343 77.3837 116.587 77.0903 117.122 77.0903C117.266 77.0895 117.41 77.1176 117.543 77.1731C117.676 77.2285 117.797 77.3101 117.899 77.4131C118 77.5161 118.08 77.6383 118.133 77.7726C118.186 77.9068 118.212 78.0504 118.209 78.1949Z" fill="#282D26"/>
<path d="M128.536 78.4059V87.0704C128.543 87.2181 128.519 87.3656 128.466 87.504C128.414 87.6424 128.334 87.7687 128.232 87.8755C128.13 87.9822 128.007 88.0672 127.871 88.1252C127.735 88.1833 127.588 88.2132 127.44 88.2132C127.292 88.2132 127.146 88.1833 127.01 88.1252C126.874 88.0672 126.751 87.9822 126.649 87.8755C126.546 87.7687 126.467 87.6424 126.414 87.504C126.362 87.3656 126.338 87.2181 126.344 87.0704V84.7019H124.755C124.544 84.7019 124.35 84.6847 124.154 84.6693L122.175 87.7377C122.084 87.8817 121.957 87.9993 121.806 88.0787C121.655 88.1581 121.486 88.1966 121.316 88.1903C121.173 88.1881 121.032 88.1577 120.901 88.101C120.77 88.0442 120.652 87.9623 120.552 87.8597C120.453 87.7571 120.375 87.6359 120.322 87.5031C120.269 87.3703 120.244 87.2285 120.246 87.0857C120.258 86.8344 120.343 86.5919 120.489 86.3876L122.127 83.9387C121.651 83.6102 121.263 83.1683 121 82.6527C120.737 82.137 120.606 81.564 120.62 80.9853C120.62 78.778 122.307 77.286 124.756 77.286H127.418C127.567 77.2812 127.714 77.3068 127.852 77.3615C127.99 77.4161 128.115 77.4984 128.22 77.6034C128.325 77.7084 128.407 77.8338 128.462 77.9719C128.516 78.1099 128.541 78.2577 128.536 78.4059ZM126.344 79.2171H124.722C123.619 79.2171 122.856 79.9305 122.856 80.9853C122.856 82.0401 123.623 82.7707 124.722 82.7707H126.344V79.2171Z" fill="#282D26"/>
<path fill-rule="evenodd" clip-rule="evenodd" d="M70.1293 13.4284C79.2022 11.7024 88.6739 14.5963 95.622 21.5137C95.8287 21.7194 96.1087 21.8346 96.4004 21.8339C96.6921 21.8331 96.9715 21.7166 97.1773 21.5098C97.383 21.3031 97.4982 21.0231 97.4975 20.7314C97.4967 20.4397 97.3802 20.1603 97.1734 19.9545C89.7249 12.5424 79.5301 9.40689 69.7208 11.269C59.9115 13.1312 50.5778 19.9795 44.8264 32.3068C44.7563 32.4573 44.7211 32.6217 44.7234 32.7878C44.7258 32.9538 44.7656 33.1172 44.8398 33.2657C44.9166 33.4191 45.0029 33.5994 45.1026 33.8084C46.0193 35.7261 48.0137 39.9049 53.3489 45.3533C53.4478 45.4639 53.5681 45.5533 53.7025 45.6162C53.8369 45.6791 53.9827 45.7141 54.131 45.7191C54.2793 45.7241 54.4271 45.699 54.5654 45.6454C54.7038 45.5917 54.8298 45.5106 54.936 45.4069C55.0421 45.3032 55.1262 45.1791 55.183 45.0421C55.2399 44.905 55.2685 44.7579 55.2669 44.6095C55.2654 44.4611 55.2338 44.3146 55.1741 44.1787C55.1144 44.0429 55.0278 43.9205 54.9196 43.8191C49.8375 38.6258 47.9677 34.7059 47.0721 32.8323L47.0433 32.7709C52.5396 21.3123 61.1944 15.1218 70.1293 13.4284ZM66.8518 17.9371C64.2533 19.0091 62.3566 20.4455 60.7649 21.717C60.6515 21.8072 60.5571 21.919 60.487 22.0457C60.4168 22.1725 60.3723 22.3119 60.356 22.4559C60.3397 22.5998 60.3519 22.7456 60.392 22.8849C60.432 23.0241 60.4991 23.1541 60.5894 23.2675C60.6797 23.3808 60.7914 23.4752 60.9182 23.5454C61.045 23.6155 61.1843 23.66 61.3283 23.6763C61.4723 23.6926 61.6181 23.6804 61.7573 23.6403C61.8966 23.6003 62.0266 23.5332 62.1399 23.4429C63.6894 22.2021 65.3886 20.9288 67.6899 19.9776C69.9912 19.0263 72.9292 18.3858 76.9661 18.5009C77.1129 18.5096 77.26 18.4887 77.3986 18.4395C77.5373 18.3902 77.6646 18.3137 77.7731 18.2143C77.8816 18.115 77.969 17.9949 78.0302 17.8611C78.0914 17.7273 78.1251 17.5826 78.1293 17.4356C78.1336 17.2885 78.1083 17.1421 78.0549 17.0051C78.0015 16.868 77.9211 16.743 77.8185 16.6376C77.7159 16.5322 77.5932 16.4484 77.4577 16.3913C77.3221 16.3342 77.1764 16.3048 77.0293 16.3051C72.7182 16.1708 69.4619 16.8612 66.8518 17.9371ZM80.023 17.8814C79.9839 18.0208 79.9728 18.1666 79.9903 18.3103C80.0078 18.454 80.0535 18.5928 80.1247 18.7188C80.196 18.8448 80.2915 18.9554 80.4057 19.0444C80.5198 19.1334 80.6505 19.199 80.7901 19.2373C84.4089 20.2499 91.3147 23.5848 95.8751 32.7671C95.574 33.3232 95.1962 33.9388 94.7801 34.5908C94.6286 34.8306 94.4694 35.076 94.3102 35.3234C93.9267 35.9198 93.5431 36.5278 93.1941 37.0935C93.044 37.3435 92.9995 37.6428 93.0701 37.9257C93.1408 38.2086 93.3209 38.4518 93.5709 38.6018C93.8209 38.7519 94.1203 38.7965 94.4031 38.7258C94.686 38.6551 94.9292 38.475 95.0792 38.225C95.3995 37.6899 95.76 37.1319 96.134 36.5508C96.2989 36.2951 96.4658 36.0355 96.6345 35.7722C97.1683 34.9612 97.6556 34.1205 98.0939 33.2542C98.1649 33.106 98.2017 32.9438 98.2017 32.7795C98.2017 32.6152 98.1649 32.453 98.0939 32.3049C93.2171 22.0775 85.5538 18.288 81.3826 17.1201C81.1022 17.0422 80.8022 17.0786 80.5485 17.2212C80.2947 17.3639 80.1079 17.6013 80.0287 17.8814H80.023ZM88.9098 29.8233C84.7656 23.5235 79.3824 21.7898 75.428 21.7898C75.2837 21.7901 75.1409 21.8188 75.0076 21.8742C74.8744 21.9297 74.7534 22.0108 74.6516 22.113C74.5497 22.2153 74.469 22.3365 74.414 22.47C74.359 22.6034 74.3308 22.7463 74.3311 22.8906V28.4713C74.3308 28.6158 74.359 28.7589 74.4142 28.8924C74.4693 29.0259 74.5502 29.1473 74.6522 29.2495C74.7543 29.3518 74.8755 29.4329 75.009 29.4882C75.1424 29.5436 75.2855 29.5721 75.4299 29.5721C75.7828 29.5721 78.3986 29.808 80.0325 32.7402C78.8819 34.5851 77.5395 35.4404 76.2987 35.6897C74.9275 35.962 73.4355 35.5497 72.0624 34.5065C71.4638 34.0423 70.9785 33.4482 70.6432 32.769L70.6931 32.6769C70.98 32.1799 71.3343 31.7249 71.7459 31.3249C71.8479 31.2228 71.9288 31.1016 71.984 30.9682C72.0391 30.8348 72.0675 30.6919 72.0674 30.5475C72.0673 30.4032 72.0388 30.2603 71.9834 30.127C71.9281 29.9937 71.8471 29.8726 71.745 29.7706C71.6429 29.6686 71.5216 29.5877 71.3883 29.5325C71.2549 29.4774 71.1119 29.449 70.9676 29.4491C70.8233 29.4492 70.6804 29.4777 70.5471 29.533C70.4137 29.5884 70.2926 29.6694 70.1906 29.7715C69.6358 30.3149 69.1588 30.9326 68.7734 31.6068C68.6635 31.8011 68.5662 32.0023 68.4819 32.209C68.4512 32.2838 68.4282 32.349 68.4129 32.4008L68.3995 32.4391C68.3995 32.4487 68.3995 32.4564 68.3995 32.464V32.4775V32.4871C68.3342 32.7274 68.3517 32.9828 68.4493 33.212C68.7976 34.0451 69.2889 34.811 69.9011 35.4749L67.4195 38.4705C65.8009 37.2009 64.1919 35.3714 62.8169 32.7498C63.8664 30.6237 65.3424 28.7365 67.1529 27.2056C68.9172 25.6905 70.5243 24.8755 71.2262 24.7125C71.511 24.6502 71.7595 24.4773 71.9168 24.2318C72.0742 23.9864 72.1275 23.6884 72.0652 23.4036C72.0029 23.1188 71.83 22.8704 71.5846 22.713C71.3391 22.5557 71.0412 22.5023 70.7564 22.5646C69.5348 22.8312 67.5959 23.907 65.7203 25.5295C63.8026 27.173 61.8216 29.4781 60.5884 32.3336C60.5251 32.4806 60.4946 32.6396 60.4989 32.7995C60.5032 32.9595 60.5423 33.1166 60.6134 33.2599C62.4256 36.9036 64.6886 39.3085 66.9957 40.8696C69.1052 42.2945 70.6586 42.8391 72.4881 43.1133C72.6324 43.1385 72.7803 43.1345 72.923 43.1017C73.0658 43.0688 73.2005 43.0078 73.3194 42.9221C73.4382 42.8364 73.5387 42.7279 73.6149 42.6028C73.6912 42.4777 73.7416 42.3387 73.7634 42.1938C73.7851 42.049 73.7777 41.9012 73.7415 41.7593C73.7053 41.6173 73.6411 41.4841 73.5526 41.3673C73.4642 41.2505 73.3533 41.1526 73.2265 41.0793C73.0997 41.006 72.9594 40.9588 72.8141 40.9405C71.5563 40.7696 70.3461 40.3455 69.2567 39.694L71.6328 36.8174C73.1919 37.7475 74.9697 38.1598 76.7513 37.8127C78.8915 37.3869 80.8207 35.8834 82.2687 33.281C82.3536 33.1293 82.4012 32.9596 82.4076 32.7858C82.4139 32.6121 82.3788 32.4393 82.3051 32.2819C80.7229 28.9009 78.1071 27.8077 76.5518 27.476V24.024C79.7142 24.3232 83.7875 25.984 87.0995 31.0142C87.2597 31.2579 87.5101 31.4279 87.7957 31.4868C88.0812 31.5458 88.3785 31.489 88.6222 31.3287C88.8658 31.1685 89.0358 30.9181 89.0948 30.6325C89.1538 30.347 89.0969 30.0497 88.9367 29.806L88.9098 29.8233ZM98.6022 23.0191C98.3795 23.2072 98.2405 23.4758 98.2153 23.7662C98.1901 24.0565 98.281 24.3451 98.4679 24.5687C99.6277 26.004 100.712 27.4987 101.717 29.0466C102.292 29.9326 102.817 30.7937 103.199 31.5128C103.36 31.8126 103.506 32.1205 103.636 32.4353C103.667 32.5068 103.694 32.5797 103.717 32.6539C102.443 35.5114 100.123 39.2184 96.928 42.6128C93.616 46.1338 89.42 49.2617 84.5469 50.7959C84.4072 50.8374 84.2772 50.9063 84.1643 50.9987C84.0515 51.091 83.9582 51.2048 83.8898 51.3335C83.8214 51.4623 83.7793 51.6033 83.7659 51.7485C83.7525 51.8936 83.7682 52.04 83.812 52.179C83.8557 52.3181 83.9267 52.447 84.0208 52.5584C84.1149 52.6697 84.2302 52.7612 84.36 52.8276C84.4898 52.8939 84.6315 52.9338 84.7769 52.9449C84.9222 52.9559 85.0683 52.9379 85.2066 52.892C90.5418 51.2139 95.0447 47.8233 98.5293 44.1202C102.014 40.417 104.532 36.3417 105.876 33.2024C105.947 33.0387 105.976 32.8604 105.962 32.6827C105.92 32.316 105.824 31.9574 105.679 31.6183C105.519 31.2316 105.34 30.8533 105.142 30.4849C104.718 29.6833 104.156 28.7589 103.558 27.8461C102.507 26.222 101.372 24.6543 100.157 23.1495C100.064 23.0391 99.9503 22.9482 99.822 22.8819C99.6937 22.8156 99.5536 22.7752 99.4097 22.7631C99.2658 22.751 99.1209 22.7674 98.9833 22.8113C98.8457 22.8552 98.7182 22.9258 98.6079 23.0191H98.6022ZM58.9507 24.793C58.7283 24.605 58.4405 24.513 58.1503 24.5371C57.8601 24.5612 57.5914 24.6994 57.4031 24.9215C56.3966 26.1332 55.4642 27.4044 54.6108 28.7283C53.7497 30.0553 52.975 31.4131 52.6163 32.4065C52.5169 32.6803 52.53 32.9823 52.6528 33.2465C53.9952 36.1231 56.214 39.5099 59.7676 42.8602L56.6551 46.7436C56.5612 46.8614 56.4925 46.9972 56.4532 47.1425C56.4139 47.2879 56.4049 47.4398 56.4266 47.5888C56.4484 47.7379 56.5005 47.8808 56.5797 48.0089C56.6589 48.137 56.7636 48.2475 56.8872 48.3335C59.0293 49.8197 61.8446 51.7586 65.7242 53.0742C69.6038 54.3897 74.5209 55.0724 80.8744 54.1443C81.0172 54.1234 81.1545 54.0745 81.2784 54.0006C81.4024 53.9266 81.5105 53.829 81.5967 53.7132C81.6829 53.5975 81.7454 53.4659 81.7808 53.326C81.8161 53.186 81.8235 53.0405 81.8026 52.8977C81.7817 52.7549 81.7329 52.6176 81.6589 52.4937C81.585 52.3698 81.4874 52.2616 81.3716 52.1755C81.2558 52.0893 81.1242 52.0267 80.9843 51.9914C80.8444 51.956 80.6989 51.9486 80.5561 51.9695C74.5401 52.8498 69.9835 52.1958 66.4338 50.9915C63.3941 49.9616 61.064 48.5156 59.1137 47.1962L61.4514 44.2774C65.0319 46.9335 69.7764 48.9088 74.9352 49.0718C80.5599 49.2406 86.6066 47.2365 92.078 41.7326C92.1878 41.6216 92.2729 41.4885 92.3274 41.3422C92.3819 41.1958 92.4047 41.0396 92.3941 40.8838C92.3836 40.728 92.3401 40.5762 92.2664 40.4385C92.1927 40.3008 92.0905 40.1804 91.9667 40.0852L87.8263 36.9094C88.0909 36.5661 88.3153 36.2554 88.5205 35.9774C88.6452 35.8048 88.7622 35.6437 88.8753 35.4922C88.965 35.377 89.0309 35.245 89.069 35.1041C89.1072 34.9631 89.1169 34.8159 89.0975 34.6712C89.0781 34.5265 89.0301 34.387 88.9562 34.2611C88.8823 34.1351 88.7841 34.0251 88.6672 33.9376C88.5503 33.85 88.4172 33.7866 88.2755 33.7511C88.1339 33.7156 87.9866 33.7087 87.8422 33.7308C87.6978 33.7528 87.5593 33.8035 87.4348 33.8797C87.3102 33.9559 87.2021 34.0562 87.1167 34.1747C86.9786 34.3569 86.8482 34.5391 86.7121 34.7232C86.3554 35.2122 85.9776 35.7319 85.4234 36.3954C84.6467 37.3275 81.4536 40.7583 76.8548 41.2416C76.7113 41.2567 76.5721 41.3 76.4453 41.3689C76.3184 41.4377 76.2064 41.531 76.1156 41.6431C76.0248 41.7553 75.9569 41.8843 75.9159 42.0227C75.875 42.1611 75.8617 42.3062 75.8768 42.4498C75.8919 42.5933 75.9351 42.7325 76.004 42.8594C76.0729 42.9862 76.1661 43.0982 76.2783 43.189C76.3905 43.2799 76.5195 43.3477 76.6579 43.3887C76.7963 43.4296 76.9414 43.443 77.085 43.4278C81.6185 42.9427 84.9056 40.1293 86.4129 38.5778L89.6213 41.0422C84.8269 45.453 79.7142 47.0064 75.0061 46.8645C69.9758 46.7149 65.3349 44.6341 61.9922 41.909C58.4137 38.7121 56.1853 35.473 54.8505 32.7479C55.3173 31.7691 55.8538 30.825 56.4557 29.923C57.258 28.6778 58.1347 27.4821 59.0811 26.3426C59.269 26.1197 59.3607 25.8313 59.3363 25.5408C59.3118 25.2503 59.1732 24.9814 58.9507 24.793Z" fill="#282D26"/>
</svg>
